<?xml version="1.0" encoding="UTF-8" standalone="no"?>
<!DOCTYPE svg PUBLIC "-//W3C//DTD SVG 1.1//EN"
 "http://www.w3.org/Graphics/SVG/1.1/DTD/svg11.dtd">
<!-- Generated by graphviz version 2.40.1 (0)
 -->
<!-- Title: snakemake_dag Pages: 1 -->
<svg width="531pt" height="476pt"
 viewBox="0.00 0.00 530.50 476.00" xmlns="http://www.w3.org/2000/svg" xmlns:xlink="http://www.w3.org/1999/xlink">
<g id="graph0" class="graph" transform="scale(1 1) rotate(0) translate(4 472)">
<title>snakemake_dag</title>
<polygon fill="#ffffff" stroke="transparent" points="-4,4 -4,-472 526.5,-472 526.5,4 -4,4"/>
<!-- 0 -->
<g id="node1" class="node">
<title>0</title>
<path fill="none" stroke="#d8a456" stroke-width="2" d="M322.5,-36C322.5,-36 292.5,-36 292.5,-36 286.5,-36 280.5,-30 280.5,-24 280.5,-24 280.5,-12 280.5,-12 280.5,-6 286.5,0 292.5,0 292.5,0 322.5,0 322.5,0 328.5,0 334.5,-6 334.5,-12 334.5,-12 334.5,-24 334.5,-24 334.5,-30 328.5,-36 322.5,-36"/>
<text text-anchor="middle" x="307.5" y="-15.5" font-family="sans" font-size="10.00" fill="#000000">all</text>
</g>
<!-- 1 -->
<g id="node2" class="node">
<title>1</title>
<path fill="none" stroke="#567bd8" stroke-width="2" d="M51,-108C51,-108 12,-108 12,-108 6,-108 0,-102 0,-96 0,-96 0,-84 0,-84 0,-78 6,-72 12,-72 12,-72 51,-72 51,-72 57,-72 63,-78 63,-84 63,-84 63,-96 63,-96 63,-102 57,-108 51,-108"/>
<text text-anchor="middle" x="31.5" y="-87.5" font-family="sans" font-size="10.00" fill="#000000">callpeaks</text>
</g>
<!-- 1&#45;&gt;0 -->
<g id="edge7" class="edge">
<title>1&#45;&gt;0</title>
<path fill="none" stroke="#c0c0c0" stroke-width="2" d="M63.1496,-75.0757C65.9465,-73.9652 68.7567,-72.921 71.5,-72 140.2165,-48.9305 223.4509,-32.4368 270.4582,-24.1286"/>
<polygon fill="#c0c0c0" stroke="#c0c0c0" stroke-width="2" points="271.2282,-27.5473 280.4801,-22.3847 270.0281,-20.6509 271.2282,-27.5473"/>
</g>
<!-- 2 -->
<g id="node3" class="node">
<title>2</title>
<path fill="none" stroke="#d85656" stroke-width="2" d="M173.5,-180C173.5,-180 67.5,-180 67.5,-180 61.5,-180 55.5,-174 55.5,-168 55.5,-168 55.5,-156 55.5,-156 55.5,-150 61.5,-144 67.5,-144 67.5,-144 173.5,-144 173.5,-144 179.5,-144 185.5,-150 185.5,-156 185.5,-156 185.5,-168 185.5,-168 185.5,-174 179.5,-180 173.5,-180"/>
<text text-anchor="middle" x="120.5" y="-159.5" font-family="sans" font-size="10.00" fill="#000000">MQ30_n_blacklist_filter</text>
</g>
<!-- 2&#45;&gt;1 -->
<g id="edge8" class="edge">
<title>2&#45;&gt;1</title>
<path fill="none" stroke="#c0c0c0" stroke-width="2" d="M98.0415,-143.8314C87.0795,-134.9632 73.7301,-124.1637 61.8735,-114.5718"/>
<polygon fill="#c0c0c0" stroke="#c0c0c0" stroke-width="2" points="63.9271,-111.7313 53.9513,-108.1628 59.5245,-117.1734 63.9271,-111.7313"/>
</g>
<!-- 7 -->
<g id="node8" class="node">
<title>7</title>
<path fill="none" stroke="#68d856" stroke-width="2" d="M148,-108C148,-108 93,-108 93,-108 87,-108 81,-102 81,-96 81,-96 81,-84 81,-84 81,-78 87,-72 93,-72 93,-72 148,-72 148,-72 154,-72 160,-78 160,-84 160,-84 160,-96 160,-96 160,-102 154,-108 148,-108"/>
<text text-anchor="middle" x="120.5" y="-87.5" font-family="sans" font-size="10.00" fill="#000000">bamCoverge</text>
</g>
<!-- 2&#45;&gt;7 -->
<g id="edge13" class="edge">
<title>2&#45;&gt;7</title>
<path fill="none" stroke="#c0c0c0" stroke-width="2" d="M120.5,-143.8314C120.5,-136.131 120.5,-126.9743 120.5,-118.4166"/>
<polygon fill="#c0c0c0" stroke="#c0c0c0" stroke-width="2" points="124.0001,-118.4132 120.5,-108.4133 117.0001,-118.4133 124.0001,-118.4132"/>
</g>
<!-- 9 -->
<g id="node10" class="node">
<title>9</title>
<path fill="none" stroke="#56d86b" stroke-width="2" d="M239,-108C239,-108 190,-108 190,-108 184,-108 178,-102 178,-96 178,-96 178,-84 178,-84 178,-78 184,-72 190,-72 190,-72 239,-72 239,-72 245,-72 251,-78 251,-84 251,-84 251,-96 251,-96 251,-102 245,-108 239,-108"/>
<text text-anchor="middle" x="214.5" y="-87.5" font-family="sans" font-size="10.00" fill="#000000">wgsmetrics</text>
</g>
<!-- 2&#45;&gt;9 -->
<g id="edge15" class="edge">
<title>2&#45;&gt;9</title>
<path fill="none" stroke="#c0c0c0" stroke-width="2" d="M144.2202,-143.8314C155.9094,-134.8779 170.1688,-123.9558 182.7809,-114.2955"/>
<polygon fill="#c0c0c0" stroke="#c0c0c0" stroke-width="2" points="184.9769,-117.0222 190.7874,-108.1628 180.7203,-111.4651 184.9769,-117.0222"/>
</g>
<!-- 3 -->
<g id="node4" class="node">
<title>3</title>
<path fill="none" stroke="#d87d56" stroke-width="2" d="M322.5,-252C322.5,-252 254.5,-252 254.5,-252 248.5,-252 242.5,-246 242.5,-240 242.5,-240 242.5,-228 242.5,-228 242.5,-222 248.5,-216 254.5,-216 254.5,-216 322.5,-216 322.5,-216 328.5,-216 334.5,-222 334.5,-228 334.5,-228 334.5,-240 334.5,-240 334.5,-246 328.5,-252 322.5,-252"/>
<text text-anchor="middle" x="288.5" y="-231.5" font-family="sans" font-size="10.00" fill="#000000">markduplicates</text>
</g>
<!-- 3&#45;&gt;2 -->
<g id="edge9" class="edge">
<title>3&#45;&gt;2</title>
<path fill="none" stroke="#c0c0c0" stroke-width="2" d="M246.1065,-215.8314C223.5376,-206.159 195.6079,-194.1891 171.8204,-183.9944"/>
<polygon fill="#c0c0c0" stroke="#c0c0c0" stroke-width="2" points="173.1588,-180.7602 162.5886,-180.038 170.4014,-187.1943 173.1588,-180.7602"/>
</g>
<!-- 10 -->
<g id="node11" class="node">
<title>10</title>
<path fill="none" stroke="#b6d856" stroke-width="2" d="M334,-108C334,-108 281,-108 281,-108 275,-108 269,-102 269,-96 269,-96 269,-84 269,-84 269,-78 275,-72 281,-72 281,-72 334,-72 334,-72 340,-72 346,-78 346,-84 346,-84 346,-96 346,-96 346,-102 340,-108 334,-108"/>
<text text-anchor="middle" x="307.5" y="-87.5" font-family="sans" font-size="10.00" fill="#000000">alignmetrics</text>
</g>
<!-- 3&#45;&gt;10 -->
<g id="edge16" class="edge">
<title>3&#45;&gt;10</title>
<path fill="none" stroke="#c0c0c0" stroke-width="2" d="M261.7769,-215.9104C250.4915,-206.6439 238.574,-194.295 232.5,-180 226.243,-165.2742 225.2056,-158.2405 232.5,-144 238.737,-131.8238 249.1395,-121.7682 260.2407,-113.7713"/>
<polygon fill="#c0c0c0" stroke="#c0c0c0" stroke-width="2" points="262.4316,-116.5171 268.8086,-108.0563 258.5473,-110.6937 262.4316,-116.5171"/>
</g>
<!-- 11 -->
<g id="node12" class="node">
<title>11</title>
<path fill="none" stroke="#56d8b9" stroke-width="2" d="M323.5,-180C323.5,-180 253.5,-180 253.5,-180 247.5,-180 241.5,-174 241.5,-168 241.5,-168 241.5,-156 241.5,-156 241.5,-150 247.5,-144 253.5,-144 253.5,-144 323.5,-144 323.5,-144 329.5,-144 335.5,-150 335.5,-156 335.5,-156 335.5,-168 335.5,-168 335.5,-174 329.5,-180 323.5,-180"/>
<text text-anchor="middle" x="288.5" y="-159.5" font-family="sans" font-size="10.00" fill="#000000">multiplemetrics</text>
</g>
<!-- 3&#45;&gt;11 -->
<g id="edge17" class="edge">
<title>3&#45;&gt;11</title>
<path fill="none" stroke="#c0c0c0" stroke-width="2" d="M288.5,-215.8314C288.5,-208.131 288.5,-198.9743 288.5,-190.4166"/>
<polygon fill="#c0c0c0" stroke="#c0c0c0" stroke-width="2" points="292.0001,-190.4132 288.5,-180.4133 285.0001,-190.4133 292.0001,-190.4132"/>
</g>
<!-- 12 -->
<g id="node13" class="node">
<title>12</title>
<path fill="none" stroke="#8fd856" stroke-width="2" d="M475,-180C475,-180 366,-180 366,-180 360,-180 354,-174 354,-168 354,-168 354,-156 354,-156 354,-150 360,-144 366,-144 366,-144 475,-144 475,-144 481,-144 487,-150 487,-156 487,-156 487,-168 487,-168 487,-174 481,-180 475,-180"/>
<text text-anchor="middle" x="420.5" y="-159.5" font-family="sans" font-size="10.00" fill="#000000">collectinsertsizemetrics</text>
</g>
<!-- 3&#45;&gt;12 -->
<g id="edge18" class="edge">
<title>3&#45;&gt;12</title>
<path fill="none" stroke="#c0c0c0" stroke-width="2" d="M321.8092,-215.8314C338.9273,-206.4942 359.9706,-195.016 378.2222,-185.0606"/>
<polygon fill="#c0c0c0" stroke="#c0c0c0" stroke-width="2" points="380.0985,-188.024 387.2015,-180.1628 376.7465,-181.8788 380.0985,-188.024"/>
</g>
<!-- 4 -->
<g id="node5" class="node">
<title>4</title>
<path fill="none" stroke="#d8cb56" stroke-width="2" d="M399.5,-324C399.5,-324 217.5,-324 217.5,-324 211.5,-324 205.5,-318 205.5,-312 205.5,-312 205.5,-300 205.5,-300 205.5,-294 211.5,-288 217.5,-288 217.5,-288 399.5,-288 399.5,-288 405.5,-288 411.5,-294 411.5,-300 411.5,-300 411.5,-312 411.5,-312 411.5,-318 405.5,-324 399.5,-324"/>
<text text-anchor="middle" x="308.5" y="-303.5" font-family="sans" font-size="10.00" fill="#000000">samtofastq_bwa_mergebamalignment</text>
</g>
<!-- 4&#45;&gt;3 -->
<g id="edge10" class="edge">
<title>4&#45;&gt;3</title>
<path fill="none" stroke="#c0c0c0" stroke-width="2" d="M303.4532,-287.8314C301.2906,-280.0463 298.7147,-270.7729 296.3152,-262.1347"/>
<polygon fill="#c0c0c0" stroke="#c0c0c0" stroke-width="2" points="299.6636,-261.1117 293.6148,-252.4133 292.919,-262.9852 299.6636,-261.1117"/>
</g>
<!-- 5 -->
<g id="node6" class="node">
<title>5</title>
<path fill="none" stroke="#56d892" stroke-width="2" d="M377,-396C377,-396 316,-396 316,-396 310,-396 304,-390 304,-384 304,-384 304,-372 304,-372 304,-366 310,-360 316,-360 316,-360 377,-360 377,-360 383,-360 389,-366 389,-372 389,-372 389,-384 389,-384 389,-390 383,-396 377,-396"/>
<text text-anchor="middle" x="346.5" y="-375.5" font-family="sans" font-size="10.00" fill="#000000">markadapters</text>
</g>
<!-- 5&#45;&gt;4 -->
<g id="edge11" class="edge">
<title>5&#45;&gt;4</title>
<path fill="none" stroke="#c0c0c0" stroke-width="2" d="M336.911,-359.8314C332.6683,-351.7925 327.5879,-342.1666 322.904,-333.2918"/>
<polygon fill="#c0c0c0" stroke="#c0c0c0" stroke-width="2" points="325.9811,-331.6235 318.2181,-324.4133 319.7904,-334.8908 325.9811,-331.6235"/>
</g>
<!-- 6 -->
<g id="node7" class="node">
<title>6</title>
<path fill="none" stroke="#56d0d8" stroke-width="2" d="M399.5,-468C399.5,-468 363.5,-468 363.5,-468 357.5,-468 351.5,-462 351.5,-456 351.5,-456 351.5,-444 351.5,-444 351.5,-438 357.5,-432 363.5,-432 363.5,-432 399.5,-432 399.5,-432 405.5,-432 411.5,-438 411.5,-444 411.5,-444 411.5,-456 411.5,-456 411.5,-462 405.5,-468 399.5,-468"/>
<text text-anchor="middle" x="381.5" y="-447.5" font-family="sans" font-size="10.00" fill="#000000">fq2ubam</text>
</g>
<!-- 6&#45;&gt;5 -->
<g id="edge12" class="edge">
<title>6&#45;&gt;5</title>
<path fill="none" stroke="#c0c0c0" stroke-width="2" d="M372.668,-431.8314C368.8014,-423.8771 364.1794,-414.369 359.9032,-405.5723"/>
<polygon fill="#c0c0c0" stroke="#c0c0c0" stroke-width="2" points="362.9707,-403.8768 355.4509,-396.4133 356.6751,-406.9371 362.9707,-403.8768"/>
</g>
<!-- 8 -->
<g id="node9" class="node">
<title>8</title>
<path fill="none" stroke="#56a9d8" stroke-width="2" d="M510.5,-324C510.5,-324 480.5,-324 480.5,-324 474.5,-324 468.5,-318 468.5,-312 468.5,-312 468.5,-300 468.5,-300 468.5,-294 474.5,-288 480.5,-288 480.5,-288 510.5,-288 510.5,-288 516.5,-288 522.5,-294 522.5,-300 522.5,-300 522.5,-312 522.5,-312 522.5,-318 516.5,-324 510.5,-324"/>
<text text-anchor="middle" x="495.5" y="-303.5" font-family="sans" font-size="10.00" fill="#000000">fastqc</text>
</g>
<!-- 6&#45;&gt;8 -->
<g id="edge14" class="edge">
<title>6&#45;&gt;8</title>
<path fill="none" stroke="#c0c0c0" stroke-width="2" d="M395.9382,-431.7623C415.8965,-406.5518 452.0293,-360.9103 474.8413,-332.0952"/>
<polygon fill="#c0c0c0" stroke="#c0c0c0" stroke-width="2" points="477.7162,-334.1026 481.1791,-324.0896 472.2278,-329.7576 477.7162,-334.1026"/>
</g>
<!-- 7&#45;&gt;0 -->
<g id="edge5" class="edge">
<title>7&#45;&gt;0</title>
<path fill="none" stroke="#c0c0c0" stroke-width="2" d="M160.1579,-74.7307C192.9009,-62.1237 239.0072,-44.3715 270.8843,-32.098"/>
<polygon fill="#c0c0c0" stroke="#c0c0c0" stroke-width="2" points="272.2153,-35.3361 280.2898,-28.4766 269.7,-28.8036 272.2153,-35.3361"/>
</g>
<!-- 8&#45;&gt;0 -->
<g id="edge6" class="edge">
<title>8&#45;&gt;0</title>
<path fill="none" stroke="#c0c0c0" stroke-width="2" d="M500.5546,-287.7674C508.186,-256.4297 519.3795,-191.1756 495.5,-144 464.7509,-83.2529 389.4904,-47.0131 344.0665,-29.9363"/>
<polygon fill="#c0c0c0" stroke="#c0c0c0" stroke-width="2" points="345.1729,-26.6145 334.5789,-26.4847 342.7797,-33.1927 345.1729,-26.6145"/>
</g>
<!-- 9&#45;&gt;0 -->
<g id="edge4" class="edge">
<title>9&#45;&gt;0</title>
<path fill="none" stroke="#c0c0c0" stroke-width="2" d="M237.9678,-71.8314C249.5327,-62.8779 263.6404,-51.9558 276.1183,-42.2955"/>
<polygon fill="#c0c0c0" stroke="#c0c0c0" stroke-width="2" points="278.275,-45.0521 284.0397,-36.1628 273.9898,-39.5171 278.275,-45.0521"/>
</g>
<!-- 10&#45;&gt;0 -->
<g id="edge2" class="edge">
<title>10&#45;&gt;0</title>
<path fill="none" stroke="#c0c0c0" stroke-width="2" d="M307.5,-71.8314C307.5,-64.131 307.5,-54.9743 307.5,-46.4166"/>
<polygon fill="#c0c0c0" stroke="#c0c0c0" stroke-width="2" points="311.0001,-46.4132 307.5,-36.4133 304.0001,-46.4133 311.0001,-46.4132"/>
</g>
<!-- 11&#45;&gt;0 -->
<g id="edge1" class="edge">
<title>11&#45;&gt;0</title>
<path fill="none" stroke="#c0c0c0" stroke-width="2" d="M321.2625,-143.9454C334.1198,-134.9749 347.4627,-122.8504 354.5,-108 361.3517,-93.5413 360.1079,-86.985 354.5,-72 350.6046,-61.5911 343.6959,-51.8652 336.3544,-43.6152"/>
<polygon fill="#c0c0c0" stroke="#c0c0c0" stroke-width="2" points="338.7014,-41.0048 329.2672,-36.1835 333.6357,-45.8358 338.7014,-41.0048"/>
</g>
<!-- 12&#45;&gt;0 -->
<g id="edge3" class="edge">
<title>12&#45;&gt;0</title>
<path fill="none" stroke="#c0c0c0" stroke-width="2" d="M413.0556,-143.8937C404.683,-124.8135 389.83,-94.4709 371.5,-72 362.7128,-61.2277 351.5604,-50.9685 341.0359,-42.3421"/>
<polygon fill="#c0c0c0" stroke="#c0c0c0" stroke-width="2" points="343.166,-39.5643 333.1596,-36.0823 338.8106,-45.0444 343.166,-39.5643"/>
</g>
</g>
</svg>
