<?xml version="1.0" encoding="UTF-8" standalone="no"?>
<!DOCTYPE svg PUBLIC "-//W3C//DTD SVG 1.1//EN"
 "http://www.w3.org/Graphics/SVG/1.1/DTD/svg11.dtd">
<!-- Generated by graphviz version 2.30.1 (20150306.0020)
 -->
<!-- Title: snakemake_dag Pages: 1 -->
<svg width="622pt" height="692pt"
 viewBox="0.00 0.00 622.00 692.00" xmlns="http://www.w3.org/2000/svg" xmlns:xlink="http://www.w3.org/1999/xlink">
<g id="graph0" class="graph" transform="scale(1 1) rotate(0) translate(4 688)">
<title>snakemake_dag</title>
<polygon fill="white" stroke="white" points="-4,5 -4,-688 619,-688 619,5 -4,5"/>
<!-- 0 -->
<g id="node1" class="node"><title>0</title>
<path fill="none" stroke="#56d863" stroke-width="2" d="M334,-36C334,-36 304,-36 304,-36 298,-36 292,-30 292,-24 292,-24 292,-12 292,-12 292,-6 298,-0 304,-0 304,-0 334,-0 334,-0 340,-0 346,-6 346,-12 346,-12 346,-24 346,-24 346,-30 340,-36 334,-36"/>
<text text-anchor="middle" x="319" y="-15.5" font-family="sans" font-size="10.00">all</text>
</g>
<!-- 1 -->
<g id="node2" class="node"><title>1</title>
<path fill="none" stroke="#d8b456" stroke-width="2" d="M48.25,-108C48.25,-108 11.75,-108 11.75,-108 5.75,-108 -0.25,-102 -0.25,-96 -0.25,-96 -0.25,-84 -0.25,-84 -0.25,-78 5.75,-72 11.75,-72 11.75,-72 48.25,-72 48.25,-72 54.25,-72 60.25,-78 60.25,-84 60.25,-84 60.25,-96 60.25,-96 60.25,-102 54.25,-108 48.25,-108"/>
<text text-anchor="middle" x="30" y="-87.5" font-family="sans" font-size="10.00">callpeaks</text>
</g>
<!-- 1&#45;&gt;0 -->
<g id="edge1" class="edge"><title>1&#45;&gt;0</title>
<path fill="none" stroke="grey" stroke-width="2" d="M60.3475,-75.3903C63.5746,-74.1576 66.834,-72.9995 70,-72 143.427,-48.8191 232.234,-32.6433 281.481,-24.6738"/>
<polygon fill="grey" stroke="grey" points="282.336,-28.0819 291.661,-23.0526 281.235,-21.169 282.336,-28.0819"/>
</g>
<!-- 2 -->
<g id="node3" class="node"><title>2</title>
<path fill="none" stroke="#56d882" stroke-width="2" d="M170.25,-180C170.25,-180 69.75,-180 69.75,-180 63.75,-180 57.75,-174 57.75,-168 57.75,-168 57.75,-156 57.75,-156 57.75,-150 63.75,-144 69.75,-144 69.75,-144 170.25,-144 170.25,-144 176.25,-144 182.25,-150 182.25,-156 182.25,-156 182.25,-168 182.25,-168 182.25,-174 176.25,-180 170.25,-180"/>
<text text-anchor="middle" x="120" y="-159.5" font-family="sans" font-size="10.00">MQ30_n_blacklist_filter</text>
</g>
<!-- 2&#45;&gt;1 -->
<g id="edge9" class="edge"><title>2&#45;&gt;1</title>
<path fill="none" stroke="grey" stroke-width="2" d="M97.7528,-143.697C86.4181,-134.881 72.4698,-124.032 60.1811,-114.474"/>
<polygon fill="grey" stroke="grey" points="62.0336,-111.481 51.9913,-108.104 57.736,-117.007 62.0336,-111.481"/>
</g>
<!-- 11 -->
<g id="node12" class="node"><title>11</title>
<path fill="none" stroke="#bed856" stroke-width="2" d="M145,-108C145,-108 91,-108 91,-108 85,-108 79,-102 79,-96 79,-96 79,-84 79,-84 79,-78 85,-72 91,-72 91,-72 145,-72 145,-72 151,-72 157,-78 157,-84 157,-84 157,-96 157,-96 157,-102 151,-108 145,-108"/>
<text text-anchor="middle" x="118" y="-87.5" font-family="sans" font-size="10.00">bamCoverge</text>
</g>
<!-- 2&#45;&gt;11 -->
<g id="edge18" class="edge"><title>2&#45;&gt;11</title>
<path fill="none" stroke="grey" stroke-width="2" d="M119.506,-143.697C119.285,-135.983 119.02,-126.712 118.775,-118.112"/>
<polygon fill="grey" stroke="grey" points="122.273,-118 118.489,-108.104 115.276,-118.2 122.273,-118"/>
</g>
<!-- 13 -->
<g id="node14" class="node"><title>13</title>
<path fill="none" stroke="#68d856" stroke-width="2" d="M234.25,-108C234.25,-108 187.75,-108 187.75,-108 181.75,-108 175.75,-102 175.75,-96 175.75,-96 175.75,-84 175.75,-84 175.75,-78 181.75,-72 187.75,-72 187.75,-72 234.25,-72 234.25,-72 240.25,-72 246.25,-78 246.25,-84 246.25,-84 246.25,-96 246.25,-96 246.25,-102 240.25,-108 234.25,-108"/>
<text text-anchor="middle" x="211" y="-87.5" font-family="sans" font-size="10.00">wgsmetrics</text>
</g>
<!-- 2&#45;&gt;13 -->
<g id="edge20" class="edge"><title>2&#45;&gt;13</title>
<path fill="none" stroke="grey" stroke-width="2" d="M142.494,-143.697C153.955,-134.881 168.058,-124.032 180.484,-114.474"/>
<polygon fill="grey" stroke="grey" points="182.972,-116.976 188.764,-108.104 178.704,-111.427 182.972,-116.976"/>
</g>
<!-- 3 -->
<g id="node4" class="node"><title>3</title>
<path fill="none" stroke="#5673d8" stroke-width="2" d="M307.25,-252C307.25,-252 262.75,-252 262.75,-252 256.75,-252 250.75,-246 250.75,-240 250.75,-240 250.75,-228 250.75,-228 250.75,-222 256.75,-216 262.75,-216 262.75,-216 307.25,-216 307.25,-216 313.25,-216 319.25,-222 319.25,-228 319.25,-228 319.25,-240 319.25,-240 319.25,-246 313.25,-252 307.25,-252"/>
<text text-anchor="middle" x="285" y="-231.5" font-family="sans" font-size="10.00">UmiDeDup</text>
</g>
<!-- 3&#45;&gt;2 -->
<g id="edge10" class="edge"><title>3&#45;&gt;2</title>
<path fill="none" stroke="grey" stroke-width="2" d="M250.411,-218.326C227.013,-208.4 195.748,-195.136 169.697,-184.083"/>
<polygon fill="grey" stroke="grey" points="170.931,-180.805 160.359,-180.122 168.197,-187.249 170.931,-180.805"/>
</g>
<!-- 10 -->
<g id="node11" class="node"><title>10</title>
<path fill="none" stroke="#9fd856" stroke-width="2" d="M307,-108C307,-108 277,-108 277,-108 271,-108 265,-102 265,-96 265,-96 265,-84 265,-84 265,-78 271,-72 277,-72 277,-72 307,-72 307,-72 313,-72 319,-78 319,-84 319,-84 319,-96 319,-96 319,-102 313,-108 307,-108"/>
<text text-anchor="middle" x="292" y="-87.5" font-family="sans" font-size="10.00">telseq</text>
</g>
<!-- 3&#45;&gt;10 -->
<g id="edge17" class="edge"><title>3&#45;&gt;10</title>
<path fill="none" stroke="grey" stroke-width="2" d="M261.695,-215.819C251.099,-206.538 239.68,-194.094 234,-180 228.019,-165.16 227.546,-158.641 234,-144 239.029,-132.591 247.862,-122.573 257.14,-114.406"/>
<polygon fill="grey" stroke="grey" points="259.45,-117.038 264.965,-107.992 255.012,-111.625 259.45,-117.038"/>
</g>
<!-- 14 -->
<g id="node15" class="node"><title>14</title>
<path fill="none" stroke="#5692d8" stroke-width="2" d="M306.25,-180C306.25,-180 255.75,-180 255.75,-180 249.75,-180 243.75,-174 243.75,-168 243.75,-168 243.75,-156 243.75,-156 243.75,-150 249.75,-144 255.75,-144 255.75,-144 306.25,-144 306.25,-144 312.25,-144 318.25,-150 318.25,-156 318.25,-156 318.25,-168 318.25,-168 318.25,-174 312.25,-180 306.25,-180"/>
<text text-anchor="middle" x="281" y="-159.5" font-family="sans" font-size="10.00">alignmetrics</text>
</g>
<!-- 3&#45;&gt;14 -->
<g id="edge21" class="edge"><title>3&#45;&gt;14</title>
<path fill="none" stroke="grey" stroke-width="2" d="M284.011,-215.697C283.57,-207.983 283.041,-198.712 282.549,-190.112"/>
<polygon fill="grey" stroke="grey" points="286.042,-189.888 281.977,-180.104 279.054,-190.288 286.042,-189.888"/>
</g>
<!-- 15 -->
<g id="node16" class="node"><title>15</title>
<path fill="none" stroke="#88d856" stroke-width="2" d="M415.25,-180C415.25,-180 348.75,-180 348.75,-180 342.75,-180 336.75,-174 336.75,-168 336.75,-168 336.75,-156 336.75,-156 336.75,-150 342.75,-144 348.75,-144 348.75,-144 415.25,-144 415.25,-144 421.25,-144 427.25,-150 427.25,-156 427.25,-156 427.25,-168 427.25,-168 427.25,-174 421.25,-180 415.25,-180"/>
<text text-anchor="middle" x="382" y="-159.5" font-family="sans" font-size="10.00">multiplemetrics</text>
</g>
<!-- 3&#45;&gt;15 -->
<g id="edge22" class="edge"><title>3&#45;&gt;15</title>
<path fill="none" stroke="grey" stroke-width="2" d="M308.978,-215.697C321.311,-206.796 336.516,-195.823 349.853,-186.199"/>
<polygon fill="grey" stroke="grey" points="352.237,-188.794 358.298,-180.104 348.141,-183.118 352.237,-188.794"/>
</g>
<!-- 16 -->
<g id="node17" class="node"><title>16</title>
<path fill="none" stroke="#d89556" stroke-width="2" d="M562.25,-180C562.25,-180 457.75,-180 457.75,-180 451.75,-180 445.75,-174 445.75,-168 445.75,-168 445.75,-156 445.75,-156 445.75,-150 451.75,-144 457.75,-144 457.75,-144 562.25,-144 562.25,-144 568.25,-144 574.25,-150 574.25,-156 574.25,-156 574.25,-168 574.25,-168 574.25,-174 568.25,-180 562.25,-180"/>
<text text-anchor="middle" x="510" y="-159.5" font-family="sans" font-size="10.00">collectinsertsizemetrics</text>
</g>
<!-- 3&#45;&gt;16 -->
<g id="edge23" class="edge"><title>3&#45;&gt;16</title>
<path fill="none" stroke="grey" stroke-width="2" d="M319.663,-222.216C353.101,-211.813 404.532,-195.812 445.506,-183.065"/>
<polygon fill="grey" stroke="grey" points="446.635,-186.379 455.144,-180.066 444.556,-179.695 446.635,-186.379"/>
</g>
<!-- 4 -->
<g id="node5" class="node"><title>4</title>
<path fill="none" stroke="#56d8c1" stroke-width="2" d="M325.25,-324C325.25,-324 260.75,-324 260.75,-324 254.75,-324 248.75,-318 248.75,-312 248.75,-312 248.75,-300 248.75,-300 248.75,-294 254.75,-288 260.75,-288 260.75,-288 325.25,-288 325.25,-288 331.25,-288 337.25,-294 337.25,-300 337.25,-300 337.25,-312 337.25,-312 337.25,-318 331.25,-324 325.25,-324"/>
<text text-anchor="middle" x="293" y="-303.5" font-family="sans" font-size="10.00">UmiReadGroup</text>
</g>
<!-- 4&#45;&gt;3 -->
<g id="edge11" class="edge"><title>4&#45;&gt;3</title>
<path fill="none" stroke="grey" stroke-width="2" d="M291.022,-287.697C290.141,-279.983 289.081,-270.712 288.099,-262.112"/>
<polygon fill="grey" stroke="grey" points="291.568,-261.642 286.955,-252.104 284.613,-262.437 291.568,-261.642"/>
</g>
<!-- 5 -->
<g id="node6" class="node"><title>5</title>
<path fill="none" stroke="#56d8a2" stroke-width="2" d="M413,-396C413,-396 235,-396 235,-396 229,-396 223,-390 223,-384 223,-384 223,-372 223,-372 223,-366 229,-360 235,-360 235,-360 413,-360 413,-360 419,-360 425,-366 425,-372 425,-372 425,-384 425,-384 425,-390 419,-396 413,-396"/>
<text text-anchor="middle" x="324" y="-375.5" font-family="sans" font-size="10.00">samtofastq_bwa_mergebamalignment</text>
</g>
<!-- 5&#45;&gt;4 -->
<g id="edge12" class="edge"><title>5&#45;&gt;4</title>
<path fill="none" stroke="grey" stroke-width="2" d="M316.337,-359.697C312.808,-351.728 308.544,-342.1 304.631,-333.264"/>
<polygon fill="grey" stroke="grey" points="307.824,-331.831 300.575,-324.104 301.424,-334.665 307.824,-331.831"/>
</g>
<!-- 6 -->
<g id="node7" class="node"><title>6</title>
<path fill="none" stroke="#d87556" stroke-width="2" d="M417,-468C417,-468 357,-468 357,-468 351,-468 345,-462 345,-456 345,-456 345,-444 345,-444 345,-438 351,-432 357,-432 357,-432 417,-432 417,-432 423,-432 429,-438 429,-444 429,-444 429,-456 429,-456 429,-462 423,-468 417,-468"/>
<text text-anchor="middle" x="387" y="-447.5" font-family="sans" font-size="10.00">markadapters</text>
</g>
<!-- 6&#45;&gt;5 -->
<g id="edge13" class="edge"><title>6&#45;&gt;5</title>
<path fill="none" stroke="grey" stroke-width="2" d="M371.427,-431.697C363.798,-423.22 354.477,-412.864 346.124,-403.583"/>
<polygon fill="grey" stroke="grey" points="348.685,-401.196 339.394,-396.104 343.482,-405.879 348.685,-401.196"/>
</g>
<!-- 7 -->
<g id="node8" class="node"><title>7</title>
<path fill="none" stroke="#56d0d8" stroke-width="2" d="M439.25,-540C439.25,-540 404.75,-540 404.75,-540 398.75,-540 392.75,-534 392.75,-528 392.75,-528 392.75,-516 392.75,-516 392.75,-510 398.75,-504 404.75,-504 404.75,-504 439.25,-504 439.25,-504 445.25,-504 451.25,-510 451.25,-516 451.25,-516 451.25,-528 451.25,-528 451.25,-534 445.25,-540 439.25,-540"/>
<text text-anchor="middle" x="422" y="-519.5" font-family="sans" font-size="10.00">fq2ubam</text>
</g>
<!-- 7&#45;&gt;6 -->
<g id="edge14" class="edge"><title>7&#45;&gt;6</title>
<path fill="none" stroke="grey" stroke-width="2" d="M413.348,-503.697C409.364,-495.728 404.55,-486.1 400.132,-477.264"/>
<polygon fill="grey" stroke="grey" points="403.155,-475.483 395.552,-468.104 396.894,-478.614 403.155,-475.483"/>
</g>
<!-- 12 -->
<g id="node13" class="node"><title>12</title>
<path fill="none" stroke="#d85656" stroke-width="2" d="M602,-396C602,-396 572,-396 572,-396 566,-396 560,-390 560,-384 560,-384 560,-372 560,-372 560,-366 566,-360 572,-360 572,-360 602,-360 602,-360 608,-360 614,-366 614,-372 614,-372 614,-384 614,-384 614,-390 608,-396 602,-396"/>
<text text-anchor="middle" x="587" y="-375.5" font-family="sans" font-size="10.00">fastqc</text>
</g>
<!-- 7&#45;&gt;12 -->
<g id="edge19" class="edge"><title>7&#45;&gt;12</title>
<path fill="none" stroke="grey" stroke-width="2" d="M441.903,-503.871C471.139,-478.711 525.818,-431.654 559.064,-403.042"/>
<polygon fill="grey" stroke="grey" points="561.73,-405.365 567.027,-396.189 557.164,-400.059 561.73,-405.365"/>
</g>
<!-- 8 -->
<g id="node9" class="node"><title>8</title>
<path fill="none" stroke="#d8d356" stroke-width="2" d="M467,-612C467,-612 377,-612 377,-612 371,-612 365,-606 365,-600 365,-600 365,-588 365,-588 365,-582 371,-576 377,-576 377,-576 467,-576 467,-576 473,-576 479,-582 479,-588 479,-588 479,-600 479,-600 479,-606 473,-612 467,-612"/>
<text text-anchor="middle" x="422" y="-591.5" font-family="sans" font-size="10.00">RemoveEmptyReads</text>
</g>
<!-- 8&#45;&gt;7 -->
<g id="edge15" class="edge"><title>8&#45;&gt;7</title>
<path fill="none" stroke="grey" stroke-width="2" d="M422,-575.697C422,-567.983 422,-558.712 422,-550.112"/>
<polygon fill="grey" stroke="grey" points="425.5,-550.104 422,-540.104 418.5,-550.104 425.5,-550.104"/>
</g>
<!-- 9 -->
<g id="node10" class="node"><title>9</title>
<path fill="none" stroke="#56b1d8" stroke-width="2" d="M447.25,-684C447.25,-684 396.75,-684 396.75,-684 390.75,-684 384.75,-678 384.75,-672 384.75,-672 384.75,-660 384.75,-660 384.75,-654 390.75,-648 396.75,-648 396.75,-648 447.25,-648 447.25,-648 453.25,-648 459.25,-654 459.25,-660 459.25,-660 459.25,-672 459.25,-672 459.25,-678 453.25,-684 447.25,-684"/>
<text text-anchor="middle" x="422" y="-663.5" font-family="sans" font-size="10.00">ExtractUmis</text>
</g>
<!-- 9&#45;&gt;8 -->
<g id="edge16" class="edge"><title>9&#45;&gt;8</title>
<path fill="none" stroke="grey" stroke-width="2" d="M422,-647.697C422,-639.983 422,-630.712 422,-622.112"/>
<polygon fill="grey" stroke="grey" points="425.5,-622.104 422,-612.104 418.5,-622.104 425.5,-622.104"/>
</g>
<!-- 10&#45;&gt;0 -->
<g id="edge5" class="edge"><title>10&#45;&gt;0</title>
<path fill="none" stroke="grey" stroke-width="2" d="M298.674,-71.6966C301.715,-63.8132 305.383,-54.3042 308.761,-45.5464"/>
<polygon fill="grey" stroke="grey" points="312.069,-46.6939 312.403,-36.1043 305.538,-44.1748 312.069,-46.6939"/>
</g>
<!-- 11&#45;&gt;0 -->
<g id="edge4" class="edge"><title>11&#45;&gt;0</title>
<path fill="none" stroke="grey" stroke-width="2" d="M157.025,-75.1534C160.061,-74.0839 163.08,-73.0229 166,-72 205.74,-58.0799 251.356,-42.3045 282.366,-31.6106"/>
<polygon fill="grey" stroke="grey" points="283.582,-34.8937 291.895,-28.3259 281.301,-28.2758 283.582,-34.8937"/>
</g>
<!-- 12&#45;&gt;0 -->
<g id="edge2" class="edge"><title>12&#45;&gt;0</title>
<path fill="none" stroke="grey" stroke-width="2" d="M590.238,-359.582C594.913,-332.875 603,-280.152 603,-235 603,-235 603,-235 603,-161 603,-52.0167 433.622,-26.6735 356.477,-20.7827"/>
<polygon fill="grey" stroke="grey" points="356.449,-17.2725 346.231,-20.0739 355.966,-24.2558 356.449,-17.2725"/>
</g>
<!-- 13&#45;&gt;0 -->
<g id="edge7" class="edge"><title>13&#45;&gt;0</title>
<path fill="none" stroke="grey" stroke-width="2" d="M237.42,-71.8761C251.41,-62.8083 268.776,-51.5523 283.886,-41.7592"/>
<polygon fill="grey" stroke="grey" points="285.991,-44.5658 292.479,-36.1898 282.183,-38.6917 285.991,-44.5658"/>
</g>
<!-- 14&#45;&gt;0 -->
<g id="edge8" class="edge"><title>14&#45;&gt;0</title>
<path fill="none" stroke="grey" stroke-width="2" d="M302.267,-143.701C312.109,-134.305 322.763,-121.798 328,-108 335.509,-88.2159 332.475,-64.2787 327.993,-46.2143"/>
<polygon fill="grey" stroke="grey" points="331.299,-45.0357 325.257,-36.3327 324.553,-46.9041 331.299,-45.0357"/>
</g>
<!-- 15&#45;&gt;0 -->
<g id="edge6" class="edge"><title>15&#45;&gt;0</title>
<path fill="none" stroke="grey" stroke-width="2" d="M375.219,-143.803C368.026,-125.776 356.178,-96.6962 345,-72 341.008,-63.1809 336.423,-53.6546 332.225,-45.1436"/>
<polygon fill="grey" stroke="grey" points="335.292,-43.4505 327.703,-36.0576 329.025,-46.5696 335.292,-43.4505"/>
</g>
<!-- 16&#45;&gt;0 -->
<g id="edge3" class="edge"><title>16&#45;&gt;0</title>
<path fill="none" stroke="grey" stroke-width="2" d="M486.961,-143.871C452.831,-118.497 388.748,-70.8544 350.365,-42.3181"/>
<polygon fill="grey" stroke="grey" points="352.234,-39.3468 342.121,-36.1893 348.058,-44.9644 352.234,-39.3468"/>
</g>
</g>
</svg>
