<?xml version="1.0" encoding="UTF-8" standalone="no"?>
<!DOCTYPE svg PUBLIC "-//W3C//DTD SVG 1.1//EN"
 "http://www.w3.org/Graphics/SVG/1.1/DTD/svg11.dtd">
<!-- Generated by graphviz version 2.30.1 (20150306.0020)
 -->
<!-- Title: snakemake_dag Pages: 1 -->
<svg width="606pt" height="476pt"
 viewBox="0.00 0.00 606.00 476.00" xmlns="http://www.w3.org/2000/svg" xmlns:xlink="http://www.w3.org/1999/xlink">
<g id="graph0" class="graph" transform="scale(1 1) rotate(0) translate(4 472)">
<title>snakemake_dag</title>
<polygon fill="white" stroke="white" points="-4,5 -4,-472 603,-472 603,5 -4,5"/>
<!-- 0 -->
<g id="node1" class="node"><title>0</title>
<path fill="none" stroke="#56d8a2" stroke-width="2" d="M334,-36C334,-36 304,-36 304,-36 298,-36 292,-30 292,-24 292,-24 292,-12 292,-12 292,-6 298,-0 304,-0 304,-0 334,-0 334,-0 340,-0 346,-6 346,-12 346,-12 346,-24 346,-24 346,-30 340,-36 334,-36"/>
<text text-anchor="middle" x="319" y="-15.5" font-family="sans" font-size="10.00">all</text>
</g>
<!-- 1 -->
<g id="node2" class="node"><title>1</title>
<path fill="none" stroke="#59d856" stroke-width="2" d="M48.25,-108C48.25,-108 11.75,-108 11.75,-108 5.75,-108 -0.25,-102 -0.25,-96 -0.25,-96 -0.25,-84 -0.25,-84 -0.25,-78 5.75,-72 11.75,-72 11.75,-72 48.25,-72 48.25,-72 54.25,-72 60.25,-78 60.25,-84 60.25,-84 60.25,-96 60.25,-96 60.25,-102 54.25,-108 48.25,-108"/>
<text text-anchor="middle" x="30" y="-87.5" font-family="sans" font-size="10.00">callpeaks</text>
</g>
<!-- 1&#45;&gt;0 -->
<g id="edge4" class="edge"><title>1&#45;&gt;0</title>
<path fill="none" stroke="grey" stroke-width="2" d="M60.3475,-75.3903C63.5746,-74.1576 66.834,-72.9995 70,-72 143.427,-48.8191 232.234,-32.6433 281.481,-24.6738"/>
<polygon fill="grey" stroke="grey" points="282.336,-28.0819 291.661,-23.0526 281.235,-21.169 282.336,-28.0819"/>
</g>
<!-- 2 -->
<g id="node3" class="node"><title>2</title>
<path fill="none" stroke="#9fd856" stroke-width="2" d="M170.25,-180C170.25,-180 69.75,-180 69.75,-180 63.75,-180 57.75,-174 57.75,-168 57.75,-168 57.75,-156 57.75,-156 57.75,-150 63.75,-144 69.75,-144 69.75,-144 170.25,-144 170.25,-144 176.25,-144 182.25,-150 182.25,-156 182.25,-156 182.25,-168 182.25,-168 182.25,-174 176.25,-180 170.25,-180"/>
<text text-anchor="middle" x="120" y="-159.5" font-family="sans" font-size="10.00">MQ30_n_blacklist_filter</text>
</g>
<!-- 2&#45;&gt;1 -->
<g id="edge9" class="edge"><title>2&#45;&gt;1</title>
<path fill="none" stroke="grey" stroke-width="2" d="M97.7528,-143.697C86.4181,-134.881 72.4698,-124.032 60.1811,-114.474"/>
<polygon fill="grey" stroke="grey" points="62.0336,-111.481 51.9913,-108.104 57.736,-117.007 62.0336,-111.481"/>
</g>
<!-- 8 -->
<g id="node9" class="node"><title>8</title>
<path fill="none" stroke="#d8a456" stroke-width="2" d="M145,-108C145,-108 91,-108 91,-108 85,-108 79,-102 79,-96 79,-96 79,-84 79,-84 79,-78 85,-72 91,-72 91,-72 145,-72 145,-72 151,-72 157,-78 157,-84 157,-84 157,-96 157,-96 157,-102 151,-108 145,-108"/>
<text text-anchor="middle" x="118" y="-87.5" font-family="sans" font-size="10.00">bamCoverge</text>
</g>
<!-- 2&#45;&gt;8 -->
<g id="edge15" class="edge"><title>2&#45;&gt;8</title>
<path fill="none" stroke="grey" stroke-width="2" d="M119.506,-143.697C119.285,-135.983 119.02,-126.712 118.775,-118.112"/>
<polygon fill="grey" stroke="grey" points="122.273,-118 118.489,-108.104 115.276,-118.2 122.273,-118"/>
</g>
<!-- 10 -->
<g id="node11" class="node"><title>10</title>
<path fill="none" stroke="#56a2d8" stroke-width="2" d="M234.25,-108C234.25,-108 187.75,-108 187.75,-108 181.75,-108 175.75,-102 175.75,-96 175.75,-96 175.75,-84 175.75,-84 175.75,-78 181.75,-72 187.75,-72 187.75,-72 234.25,-72 234.25,-72 240.25,-72 246.25,-78 246.25,-84 246.25,-84 246.25,-96 246.25,-96 246.25,-102 240.25,-108 234.25,-108"/>
<text text-anchor="middle" x="211" y="-87.5" font-family="sans" font-size="10.00">wgsmetrics</text>
</g>
<!-- 2&#45;&gt;10 -->
<g id="edge17" class="edge"><title>2&#45;&gt;10</title>
<path fill="none" stroke="grey" stroke-width="2" d="M142.494,-143.697C153.955,-134.881 168.058,-124.032 180.484,-114.474"/>
<polygon fill="grey" stroke="grey" points="182.972,-116.976 188.764,-108.104 178.704,-111.427 182.972,-116.976"/>
</g>
<!-- 3 -->
<g id="node4" class="node"><title>3</title>
<path fill="none" stroke="#d8c356" stroke-width="2" d="M364,-252C364,-252 298,-252 298,-252 292,-252 286,-246 286,-240 286,-240 286,-228 286,-228 286,-222 292,-216 298,-216 298,-216 364,-216 364,-216 370,-216 376,-222 376,-228 376,-228 376,-240 376,-240 376,-246 370,-252 364,-252"/>
<text text-anchor="middle" x="331" y="-231.5" font-family="sans" font-size="10.00">markduplicates</text>
</g>
<!-- 3&#45;&gt;2 -->
<g id="edge10" class="edge"><title>3&#45;&gt;2</title>
<path fill="none" stroke="grey" stroke-width="2" d="M285.994,-218.069C255.48,-207.946 214.769,-194.44 181.301,-183.337"/>
<polygon fill="grey" stroke="grey" points="182.212,-179.952 171.619,-180.125 180.008,-186.596 182.212,-179.952"/>
</g>
<!-- 7 -->
<g id="node8" class="node"><title>7</title>
<path fill="none" stroke="#56d87b" stroke-width="2" d="M307,-108C307,-108 277,-108 277,-108 271,-108 265,-102 265,-96 265,-96 265,-84 265,-84 265,-78 271,-72 277,-72 277,-72 307,-72 307,-72 313,-72 319,-78 319,-84 319,-84 319,-96 319,-96 319,-102 313,-108 307,-108"/>
<text text-anchor="middle" x="292" y="-87.5" font-family="sans" font-size="10.00">telseq</text>
</g>
<!-- 3&#45;&gt;7 -->
<g id="edge14" class="edge"><title>3&#45;&gt;7</title>
<path fill="none" stroke="grey" stroke-width="2" d="M285.889,-219.962C266.337,-211.823 245.356,-199.146 234,-180 225.838,-166.239 227.546,-158.641 234,-144 239.029,-132.591 247.862,-122.573 257.14,-114.406"/>
<polygon fill="grey" stroke="grey" points="259.45,-117.038 264.965,-107.992 255.012,-111.625 259.45,-117.038"/>
</g>
<!-- 11 -->
<g id="node12" class="node"><title>11</title>
<path fill="none" stroke="#d87d56" stroke-width="2" d="M306.25,-180C306.25,-180 255.75,-180 255.75,-180 249.75,-180 243.75,-174 243.75,-168 243.75,-168 243.75,-156 243.75,-156 243.75,-150 249.75,-144 255.75,-144 255.75,-144 306.25,-144 306.25,-144 312.25,-144 318.25,-150 318.25,-156 318.25,-156 318.25,-168 318.25,-168 318.25,-174 312.25,-180 306.25,-180"/>
<text text-anchor="middle" x="281" y="-159.5" font-family="sans" font-size="10.00">alignmetrics</text>
</g>
<!-- 3&#45;&gt;11 -->
<g id="edge18" class="edge"><title>3&#45;&gt;11</title>
<path fill="none" stroke="grey" stroke-width="2" d="M318.64,-215.697C312.767,-207.474 305.631,-197.483 299.158,-188.421"/>
<polygon fill="grey" stroke="grey" points="301.878,-186.207 293.217,-180.104 296.182,-190.276 301.878,-186.207"/>
</g>
<!-- 12 -->
<g id="node13" class="node"><title>12</title>
<path fill="none" stroke="#56c9d8" stroke-width="2" d="M415.25,-180C415.25,-180 348.75,-180 348.75,-180 342.75,-180 336.75,-174 336.75,-168 336.75,-168 336.75,-156 336.75,-156 336.75,-150 342.75,-144 348.75,-144 348.75,-144 415.25,-144 415.25,-144 421.25,-144 427.25,-150 427.25,-156 427.25,-156 427.25,-168 427.25,-168 427.25,-174 421.25,-180 415.25,-180"/>
<text text-anchor="middle" x="382" y="-159.5" font-family="sans" font-size="10.00">multiplemetrics</text>
</g>
<!-- 3&#45;&gt;12 -->
<g id="edge19" class="edge"><title>3&#45;&gt;12</title>
<path fill="none" stroke="grey" stroke-width="2" d="M343.607,-215.697C349.597,-207.474 356.876,-197.483 363.479,-188.421"/>
<polygon fill="grey" stroke="grey" points="366.478,-190.248 369.538,-180.104 360.821,-186.126 366.478,-190.248"/>
</g>
<!-- 13 -->
<g id="node14" class="node"><title>13</title>
<path fill="none" stroke="#c6d856" stroke-width="2" d="M562.25,-180C562.25,-180 457.75,-180 457.75,-180 451.75,-180 445.75,-174 445.75,-168 445.75,-168 445.75,-156 445.75,-156 445.75,-150 451.75,-144 457.75,-144 457.75,-144 562.25,-144 562.25,-144 568.25,-144 574.25,-150 574.25,-156 574.25,-156 574.25,-168 574.25,-168 574.25,-174 568.25,-180 562.25,-180"/>
<text text-anchor="middle" x="510" y="-159.5" font-family="sans" font-size="10.00">collectinsertsizemetrics</text>
</g>
<!-- 3&#45;&gt;13 -->
<g id="edge20" class="edge"><title>3&#45;&gt;13</title>
<path fill="none" stroke="grey" stroke-width="2" d="M374.788,-215.876C399.585,-206.179 430.781,-193.98 456.958,-183.743"/>
<polygon fill="grey" stroke="grey" points="458.315,-186.97 466.354,-180.068 455.766,-180.451 458.315,-186.97"/>
</g>
<!-- 4 -->
<g id="node5" class="node"><title>4</title>
<path fill="none" stroke="#567bd8" stroke-width="2" d="M483,-324C483,-324 305,-324 305,-324 299,-324 293,-318 293,-312 293,-312 293,-300 293,-300 293,-294 299,-288 305,-288 305,-288 483,-288 483,-288 489,-288 495,-294 495,-300 495,-300 495,-312 495,-312 495,-318 489,-324 483,-324"/>
<text text-anchor="middle" x="394" y="-303.5" font-family="sans" font-size="10.00">samtofastq_bwa_mergebamalignment</text>
</g>
<!-- 4&#45;&gt;3 -->
<g id="edge11" class="edge"><title>4&#45;&gt;3</title>
<path fill="none" stroke="grey" stroke-width="2" d="M378.427,-287.697C370.798,-279.22 361.477,-268.864 353.124,-259.583"/>
<polygon fill="grey" stroke="grey" points="355.685,-257.196 346.394,-252.104 350.482,-261.879 355.685,-257.196"/>
</g>
<!-- 5 -->
<g id="node6" class="node"><title>5</title>
<path fill="none" stroke="#56d8c9" stroke-width="2" d="M477,-396C477,-396 417,-396 417,-396 411,-396 405,-390 405,-384 405,-384 405,-372 405,-372 405,-366 411,-360 417,-360 417,-360 477,-360 477,-360 483,-360 489,-366 489,-372 489,-372 489,-384 489,-384 489,-390 483,-396 477,-396"/>
<text text-anchor="middle" x="447" y="-375.5" font-family="sans" font-size="10.00">markadapters</text>
</g>
<!-- 5&#45;&gt;4 -->
<g id="edge12" class="edge"><title>5&#45;&gt;4</title>
<path fill="none" stroke="grey" stroke-width="2" d="M433.899,-359.697C427.609,-351.389 419.953,-341.277 413.035,-332.141"/>
<polygon fill="grey" stroke="grey" points="415.777,-329.964 406.95,-324.104 410.196,-334.19 415.777,-329.964"/>
</g>
<!-- 6 -->
<g id="node7" class="node"><title>6</title>
<path fill="none" stroke="#d85656" stroke-width="2" d="M512.25,-468C512.25,-468 477.75,-468 477.75,-468 471.75,-468 465.75,-462 465.75,-456 465.75,-456 465.75,-444 465.75,-444 465.75,-438 471.75,-432 477.75,-432 477.75,-432 512.25,-432 512.25,-432 518.25,-432 524.25,-438 524.25,-444 524.25,-444 524.25,-456 524.25,-456 524.25,-462 518.25,-468 512.25,-468"/>
<text text-anchor="middle" x="495" y="-447.5" font-family="sans" font-size="10.00">fq2ubam</text>
</g>
<!-- 6&#45;&gt;5 -->
<g id="edge13" class="edge"><title>6&#45;&gt;5</title>
<path fill="none" stroke="grey" stroke-width="2" d="M483.135,-431.697C477.497,-423.474 470.646,-413.483 464.431,-404.421"/>
<polygon fill="grey" stroke="grey" points="467.271,-402.372 458.729,-396.104 461.497,-406.331 467.271,-402.372"/>
</g>
<!-- 9 -->
<g id="node10" class="node"><title>9</title>
<path fill="none" stroke="#78d856" stroke-width="2" d="M586,-324C586,-324 556,-324 556,-324 550,-324 544,-318 544,-312 544,-312 544,-300 544,-300 544,-294 550,-288 556,-288 556,-288 586,-288 586,-288 592,-288 598,-294 598,-300 598,-300 598,-312 598,-312 598,-318 592,-324 586,-324"/>
<text text-anchor="middle" x="571" y="-303.5" font-family="sans" font-size="10.00">fastqc</text>
</g>
<!-- 6&#45;&gt;9 -->
<g id="edge16" class="edge"><title>6&#45;&gt;9</title>
<path fill="none" stroke="grey" stroke-width="2" d="M504.167,-431.871C517.291,-407.35 541.546,-362.032 556.946,-333.259"/>
<polygon fill="grey" stroke="grey" points="560.167,-334.658 561.8,-324.189 553.995,-331.354 560.167,-334.658"/>
</g>
<!-- 7&#45;&gt;0 -->
<g id="edge6" class="edge"><title>7&#45;&gt;0</title>
<path fill="none" stroke="grey" stroke-width="2" d="M298.674,-71.6966C301.715,-63.8132 305.383,-54.3042 308.761,-45.5464"/>
<polygon fill="grey" stroke="grey" points="312.069,-46.6939 312.403,-36.1043 305.538,-44.1748 312.069,-46.6939"/>
</g>
<!-- 8&#45;&gt;0 -->
<g id="edge1" class="edge"><title>8&#45;&gt;0</title>
<path fill="none" stroke="grey" stroke-width="2" d="M157.025,-75.1534C160.061,-74.0839 163.08,-73.0229 166,-72 205.74,-58.0799 251.356,-42.3045 282.366,-31.6106"/>
<polygon fill="grey" stroke="grey" points="283.582,-34.8937 291.895,-28.3259 281.301,-28.2758 283.582,-34.8937"/>
</g>
<!-- 9&#45;&gt;0 -->
<g id="edge5" class="edge"><title>9&#45;&gt;0</title>
<path fill="none" stroke="grey" stroke-width="2" d="M578.466,-287.881C590.86,-256.593 611.632,-189.236 583,-144 532.597,-64.3678 416.247,-34.4783 356.26,-24.0764"/>
<polygon fill="grey" stroke="grey" points="356.525,-20.5733 346.09,-22.407 355.391,-27.4808 356.525,-20.5733"/>
</g>
<!-- 10&#45;&gt;0 -->
<g id="edge8" class="edge"><title>10&#45;&gt;0</title>
<path fill="none" stroke="grey" stroke-width="2" d="M237.42,-71.8761C251.41,-62.8083 268.776,-51.5523 283.886,-41.7592"/>
<polygon fill="grey" stroke="grey" points="285.991,-44.5658 292.479,-36.1898 282.183,-38.6917 285.991,-44.5658"/>
</g>
<!-- 11&#45;&gt;0 -->
<g id="edge2" class="edge"><title>11&#45;&gt;0</title>
<path fill="none" stroke="grey" stroke-width="2" d="M302.267,-143.701C312.109,-134.305 322.763,-121.798 328,-108 335.509,-88.2159 332.475,-64.2787 327.993,-46.2143"/>
<polygon fill="grey" stroke="grey" points="331.299,-45.0357 325.257,-36.3327 324.553,-46.9041 331.299,-45.0357"/>
</g>
<!-- 12&#45;&gt;0 -->
<g id="edge7" class="edge"><title>12&#45;&gt;0</title>
<path fill="none" stroke="grey" stroke-width="2" d="M375.219,-143.803C368.026,-125.776 356.178,-96.6962 345,-72 341.008,-63.1809 336.423,-53.6546 332.225,-45.1436"/>
<polygon fill="grey" stroke="grey" points="335.292,-43.4505 327.703,-36.0576 329.025,-46.5696 335.292,-43.4505"/>
</g>
<!-- 13&#45;&gt;0 -->
<g id="edge3" class="edge"><title>13&#45;&gt;0</title>
<path fill="none" stroke="grey" stroke-width="2" d="M486.961,-143.871C452.831,-118.497 388.748,-70.8544 350.365,-42.3181"/>
<polygon fill="grey" stroke="grey" points="352.234,-39.3468 342.121,-36.1893 348.058,-44.9644 352.234,-39.3468"/>
</g>
</g>
</svg>
