<?xml version="1.0" encoding="UTF-8" standalone="no"?>
<!DOCTYPE svg PUBLIC "-//W3C//DTD SVG 1.1//EN"
 "http://www.w3.org/Graphics/SVG/1.1/DTD/svg11.dtd">
<!-- Generated by graphviz version 2.49.0 (20210829.0051)
 -->
<!-- Title: snakemake_dag Pages: 1 -->
<svg width="622pt" height="404pt"
 viewBox="0.00 0.00 621.50 404.00" xmlns="http://www.w3.org/2000/svg" xmlns:xlink="http://www.w3.org/1999/xlink">
<g id="graph0" class="graph" transform="scale(1 1) rotate(0) translate(4 400)">
<title>snakemake_dag</title>
<polygon fill="white" stroke="transparent" points="-4,4 -4,-400 617.5,-400 617.5,4 -4,4"/>
<!-- 0 -->
<g id="node1" class="node">
<title>0</title>
<path fill="none" stroke="#56d8c9" stroke-width="2" d="M338.5,-36C338.5,-36 308.5,-36 308.5,-36 302.5,-36 296.5,-30 296.5,-24 296.5,-24 296.5,-12 296.5,-12 296.5,-6 302.5,0 308.5,0 308.5,0 338.5,0 338.5,0 344.5,0 350.5,-6 350.5,-12 350.5,-12 350.5,-24 350.5,-24 350.5,-30 344.5,-36 338.5,-36"/>
<text text-anchor="middle" x="323.5" y="-15.5" font-family="sans" font-size="10.00">all</text>
</g>
<!-- 1 -->
<g id="node2" class="node">
<title>1</title>
<path fill="none" stroke="#56d87b" stroke-width="2" d="M51,-108C51,-108 12,-108 12,-108 6,-108 0,-102 0,-96 0,-96 0,-84 0,-84 0,-78 6,-72 12,-72 12,-72 51,-72 51,-72 57,-72 63,-78 63,-84 63,-84 63,-96 63,-96 63,-102 57,-108 51,-108"/>
<text text-anchor="middle" x="31.5" y="-87.5" font-family="sans" font-size="10.00">callpeaks</text>
</g>
<!-- 1&#45;&gt;0 -->
<g id="edge5" class="edge">
<title>1&#45;&gt;0</title>
<path fill="none" stroke="grey" stroke-width="2" d="M63.17,-74.88C65.96,-73.84 68.76,-72.86 71.5,-72 146.16,-48.53 236.54,-32.38 286.24,-24.51"/>
<polygon fill="grey" stroke="grey" stroke-width="2" points="286.86,-27.95 296.2,-22.95 285.78,-21.04 286.86,-27.95"/>
</g>
<!-- 2 -->
<g id="node3" class="node">
<title>2</title>
<path fill="none" stroke="#56c9d8" stroke-width="2" d="M156.5,-180C156.5,-180 126.5,-180 126.5,-180 120.5,-180 114.5,-174 114.5,-168 114.5,-168 114.5,-156 114.5,-156 114.5,-150 120.5,-144 126.5,-144 126.5,-144 156.5,-144 156.5,-144 162.5,-144 168.5,-150 168.5,-156 168.5,-156 168.5,-168 168.5,-168 168.5,-174 162.5,-180 156.5,-180"/>
<text text-anchor="middle" x="141.5" y="-159.5" font-family="sans" font-size="10.00">MQ30</text>
</g>
<!-- 2&#45;&gt;1 -->
<g id="edge9" class="edge">
<title>2&#45;&gt;1</title>
<path fill="none" stroke="grey" stroke-width="2" d="M114.59,-143.88C100.34,-134.81 82.65,-123.55 67.26,-113.76"/>
<polygon fill="grey" stroke="grey" stroke-width="2" points="68.83,-110.61 58.51,-108.19 65.07,-116.51 68.83,-110.61"/>
</g>
<!-- 7 -->
<g id="node8" class="node">
<title>7</title>
<path fill="none" stroke="#d87d56" stroke-width="2" d="M148,-108C148,-108 93,-108 93,-108 87,-108 81,-102 81,-96 81,-96 81,-84 81,-84 81,-78 87,-72 93,-72 93,-72 148,-72 148,-72 154,-72 160,-78 160,-84 160,-84 160,-96 160,-96 160,-102 154,-108 148,-108"/>
<text text-anchor="middle" x="120.5" y="-87.5" font-family="sans" font-size="10.00">bamCoverge</text>
</g>
<!-- 2&#45;&gt;7 -->
<g id="edge14" class="edge">
<title>2&#45;&gt;7</title>
<path fill="none" stroke="grey" stroke-width="2" d="M136.31,-143.7C133.97,-135.9 131.15,-126.51 128.55,-117.83"/>
<polygon fill="grey" stroke="grey" stroke-width="2" points="131.86,-116.68 125.63,-108.1 125.15,-118.69 131.86,-116.68"/>
</g>
<!-- 9 -->
<g id="node10" class="node">
<title>9</title>
<path fill="none" stroke="#56d8a2" stroke-width="2" d="M239,-108C239,-108 190,-108 190,-108 184,-108 178,-102 178,-96 178,-96 178,-84 178,-84 178,-78 184,-72 190,-72 190,-72 239,-72 239,-72 245,-72 251,-78 251,-84 251,-84 251,-96 251,-96 251,-102 245,-108 239,-108"/>
<text text-anchor="middle" x="214.5" y="-87.5" font-family="sans" font-size="10.00">wgsmetrics</text>
</g>
<!-- 2&#45;&gt;9 -->
<g id="edge16" class="edge">
<title>2&#45;&gt;9</title>
<path fill="none" stroke="grey" stroke-width="2" d="M159.54,-143.7C168.56,-135.05 179.62,-124.45 189.44,-115.03"/>
<polygon fill="grey" stroke="grey" stroke-width="2" points="191.87,-117.55 196.66,-108.1 187.02,-112.5 191.87,-117.55"/>
</g>
<!-- 3 -->
<g id="node4" class="node">
<title>3</title>
<path fill="none" stroke="#d8a456" stroke-width="2" d="M360.5,-252C360.5,-252 292.5,-252 292.5,-252 286.5,-252 280.5,-246 280.5,-240 280.5,-240 280.5,-228 280.5,-228 280.5,-222 286.5,-216 292.5,-216 292.5,-216 360.5,-216 360.5,-216 366.5,-216 372.5,-222 372.5,-228 372.5,-228 372.5,-240 372.5,-240 372.5,-246 366.5,-252 360.5,-252"/>
<text text-anchor="middle" x="326.5" y="-231.5" font-family="sans" font-size="10.00">markduplicates</text>
</g>
<!-- 3&#45;&gt;2 -->
<g id="edge10" class="edge">
<title>3&#45;&gt;2</title>
<path fill="none" stroke="grey" stroke-width="2" d="M281.24,-215.88C249.53,-203.88 207.68,-188.04 178.08,-176.84"/>
<polygon fill="grey" stroke="grey" stroke-width="2" points="179.13,-173.5 168.54,-173.23 176.65,-180.04 179.13,-173.5"/>
</g>
<!-- 6 -->
<g id="node7" class="node">
<title>6</title>
<path fill="none" stroke="#56a2d8" stroke-width="2" d="M311.5,-108C311.5,-108 281.5,-108 281.5,-108 275.5,-108 269.5,-102 269.5,-96 269.5,-96 269.5,-84 269.5,-84 269.5,-78 275.5,-72 281.5,-72 281.5,-72 311.5,-72 311.5,-72 317.5,-72 323.5,-78 323.5,-84 323.5,-84 323.5,-96 323.5,-96 323.5,-102 317.5,-108 311.5,-108"/>
<text text-anchor="middle" x="296.5" y="-87.5" font-family="sans" font-size="10.00">telseq</text>
</g>
<!-- 3&#45;&gt;6 -->
<g id="edge13" class="edge">
<title>3&#45;&gt;6</title>
<path fill="none" stroke="grey" stroke-width="2" d="M280.29,-220.41C260.07,-212.35 238.3,-199.61 226.5,-180 218.25,-166.29 219.38,-158.33 226.5,-144 233.85,-129.22 247.5,-117.46 260.82,-108.81"/>
<polygon fill="grey" stroke="grey" stroke-width="2" points="262.71,-111.76 269.44,-103.58 259.08,-105.77 262.71,-111.76"/>
</g>
<!-- 10 -->
<g id="node11" class="node">
<title>10</title>
<path fill="none" stroke="#78d856" stroke-width="2" d="M301,-180C301,-180 248,-180 248,-180 242,-180 236,-174 236,-168 236,-168 236,-156 236,-156 236,-150 242,-144 248,-144 248,-144 301,-144 301,-144 307,-144 313,-150 313,-156 313,-156 313,-168 313,-168 313,-174 307,-180 301,-180"/>
<text text-anchor="middle" x="274.5" y="-159.5" font-family="sans" font-size="10.00">alignmetrics</text>
</g>
<!-- 3&#45;&gt;10 -->
<g id="edge17" class="edge">
<title>3&#45;&gt;10</title>
<path fill="none" stroke="grey" stroke-width="2" d="M313.65,-215.7C307.47,-207.39 299.96,-197.28 293.18,-188.14"/>
<polygon fill="grey" stroke="grey" stroke-width="2" points="295.98,-186.04 287.21,-180.1 290.36,-190.22 295.98,-186.04"/>
</g>
<!-- 11 -->
<g id="node12" class="node">
<title>11</title>
<path fill="none" stroke="#59d856" stroke-width="2" d="M413.5,-180C413.5,-180 343.5,-180 343.5,-180 337.5,-180 331.5,-174 331.5,-168 331.5,-168 331.5,-156 331.5,-156 331.5,-150 337.5,-144 343.5,-144 343.5,-144 413.5,-144 413.5,-144 419.5,-144 425.5,-150 425.5,-156 425.5,-156 425.5,-168 425.5,-168 425.5,-174 419.5,-180 413.5,-180"/>
<text text-anchor="middle" x="378.5" y="-159.5" font-family="sans" font-size="10.00">multiplemetrics</text>
</g>
<!-- 3&#45;&gt;11 -->
<g id="edge18" class="edge">
<title>3&#45;&gt;11</title>
<path fill="none" stroke="grey" stroke-width="2" d="M339.35,-215.7C345.53,-207.39 353.04,-197.28 359.82,-188.14"/>
<polygon fill="grey" stroke="grey" stroke-width="2" points="362.64,-190.22 365.79,-180.1 357.02,-186.04 362.64,-190.22"/>
</g>
<!-- 12 -->
<g id="node13" class="node">
<title>12</title>
<path fill="none" stroke="#d85656" stroke-width="2" d="M565,-180C565,-180 456,-180 456,-180 450,-180 444,-174 444,-168 444,-168 444,-156 444,-156 444,-150 450,-144 456,-144 456,-144 565,-144 565,-144 571,-144 577,-150 577,-156 577,-156 577,-168 577,-168 577,-174 571,-180 565,-180"/>
<text text-anchor="middle" x="510.5" y="-159.5" font-family="sans" font-size="10.00">collectinsertsizemetrics</text>
</g>
<!-- 3&#45;&gt;12 -->
<g id="edge19" class="edge">
<title>3&#45;&gt;12</title>
<path fill="none" stroke="grey" stroke-width="2" d="M371.51,-215.88C397,-206.18 429.07,-193.98 455.98,-183.74"/>
<polygon fill="grey" stroke="grey" stroke-width="2" points="457.53,-186.9 465.63,-180.07 455.04,-180.35 457.53,-186.9"/>
</g>
<!-- 4 -->
<g id="node5" class="node">
<title>4</title>
<path fill="none" stroke="#d8c356" stroke-width="2" d="M491.5,-324C491.5,-324 309.5,-324 309.5,-324 303.5,-324 297.5,-318 297.5,-312 297.5,-312 297.5,-300 297.5,-300 297.5,-294 303.5,-288 309.5,-288 309.5,-288 491.5,-288 491.5,-288 497.5,-288 503.5,-294 503.5,-300 503.5,-300 503.5,-312 503.5,-312 503.5,-318 497.5,-324 491.5,-324"/>
<text text-anchor="middle" x="400.5" y="-303.5" font-family="sans" font-size="10.00">samtofastq_bwa_mergebamalignment</text>
</g>
<!-- 4&#45;&gt;3 -->
<g id="edge11" class="edge">
<title>4&#45;&gt;3</title>
<path fill="none" stroke="grey" stroke-width="2" d="M382.21,-287.7C373.07,-279.05 361.86,-268.45 351.9,-259.03"/>
<polygon fill="grey" stroke="grey" stroke-width="2" points="354.25,-256.43 344.58,-252.1 349.44,-261.52 354.25,-256.43"/>
</g>
<!-- 5 -->
<g id="node6" class="node">
<title>5</title>
<path fill="none" stroke="#567bd8" stroke-width="2" d="M483.5,-396C483.5,-396 447.5,-396 447.5,-396 441.5,-396 435.5,-390 435.5,-384 435.5,-384 435.5,-372 435.5,-372 435.5,-366 441.5,-360 447.5,-360 447.5,-360 483.5,-360 483.5,-360 489.5,-360 495.5,-366 495.5,-372 495.5,-372 495.5,-384 495.5,-384 495.5,-390 489.5,-396 483.5,-396"/>
<text text-anchor="middle" x="465.5" y="-375.5" font-family="sans" font-size="10.00">fq2ubam</text>
</g>
<!-- 5&#45;&gt;4 -->
<g id="edge12" class="edge">
<title>5&#45;&gt;4</title>
<path fill="none" stroke="grey" stroke-width="2" d="M449.43,-359.7C441.56,-351.22 431.94,-340.86 423.33,-331.58"/>
<polygon fill="grey" stroke="grey" stroke-width="2" points="425.75,-329.05 416.38,-324.1 420.62,-333.81 425.75,-329.05"/>
</g>
<!-- 8 -->
<g id="node9" class="node">
<title>8</title>
<path fill="none" stroke="#c6d856" stroke-width="2" d="M601.5,-252C601.5,-252 571.5,-252 571.5,-252 565.5,-252 559.5,-246 559.5,-240 559.5,-240 559.5,-228 559.5,-228 559.5,-222 565.5,-216 571.5,-216 571.5,-216 601.5,-216 601.5,-216 607.5,-216 613.5,-222 613.5,-228 613.5,-228 613.5,-240 613.5,-240 613.5,-246 607.5,-252 601.5,-252"/>
<text text-anchor="middle" x="586.5" y="-231.5" font-family="sans" font-size="10.00">fastqc</text>
</g>
<!-- 5&#45;&gt;8 -->
<g id="edge15" class="edge">
<title>5&#45;&gt;8</title>
<path fill="none" stroke="grey" stroke-width="2" d="M480.88,-359.94C490.13,-349.61 502.08,-336.13 512.5,-324 530.89,-302.58 551.38,-277.87 566.13,-259.93"/>
<polygon fill="grey" stroke="grey" stroke-width="2" points="568.84,-262.15 572.47,-252.2 563.42,-257.71 568.84,-262.15"/>
</g>
<!-- 6&#45;&gt;0 -->
<g id="edge8" class="edge">
<title>6&#45;&gt;0</title>
<path fill="none" stroke="grey" stroke-width="2" d="M303.17,-71.7C306.21,-63.81 309.88,-54.3 313.26,-45.55"/>
<polygon fill="grey" stroke="grey" stroke-width="2" points="316.57,-46.69 316.9,-36.1 310.04,-44.17 316.57,-46.69"/>
</g>
<!-- 7&#45;&gt;0 -->
<g id="edge1" class="edge">
<title>7&#45;&gt;0</title>
<path fill="none" stroke="grey" stroke-width="2" d="M160.04,-74.96C162.9,-73.95 165.74,-72.96 168.5,-72 208.85,-57.96 255.23,-42.14 286.66,-31.47"/>
<polygon fill="grey" stroke="grey" stroke-width="2" points="287.96,-34.72 296.31,-28.2 285.72,-28.1 287.96,-34.72"/>
</g>
<!-- 8&#45;&gt;0 -->
<g id="edge3" class="edge">
<title>8&#45;&gt;0</title>
<path fill="none" stroke="grey" stroke-width="2" d="M591.34,-215.75C595.63,-196.62 599.31,-165.62 585.5,-144 535.21,-65.27 420.38,-35.02 360.84,-24.32"/>
<polygon fill="grey" stroke="grey" stroke-width="2" points="361.19,-20.82 350.74,-22.59 360.01,-27.72 361.19,-20.82"/>
</g>
<!-- 9&#45;&gt;0 -->
<g id="edge7" class="edge">
<title>9&#45;&gt;0</title>
<path fill="none" stroke="grey" stroke-width="2" d="M241.16,-71.88C255.28,-62.81 272.81,-51.55 288.06,-41.76"/>
<polygon fill="grey" stroke="grey" stroke-width="2" points="290.21,-44.54 296.73,-36.19 286.43,-38.65 290.21,-44.54"/>
</g>
<!-- 10&#45;&gt;0 -->
<g id="edge6" class="edge">
<title>10&#45;&gt;0</title>
<path fill="none" stroke="grey" stroke-width="2" d="M301.84,-143.77C313.61,-134.72 326.12,-122.48 332.5,-108 341.13,-88.43 337.87,-64.15 333.01,-45.9"/>
<polygon fill="grey" stroke="grey" stroke-width="2" points="336.33,-44.78 330.13,-36.19 329.62,-46.77 336.33,-44.78"/>
</g>
<!-- 11&#45;&gt;0 -->
<g id="edge4" class="edge">
<title>11&#45;&gt;0</title>
<path fill="none" stroke="grey" stroke-width="2" d="M373.65,-143.68C368.38,-125.55 359.4,-96.39 349.5,-72 345.92,-63.17 341.5,-53.76 337.34,-45.36"/>
<polygon fill="grey" stroke="grey" stroke-width="2" points="340.44,-43.73 332.8,-36.38 334.19,-46.89 340.44,-43.73"/>
</g>
<!-- 12&#45;&gt;0 -->
<g id="edge2" class="edge">
<title>12&#45;&gt;0</title>
<path fill="none" stroke="grey" stroke-width="2" d="M487.94,-143.87C454.53,-118.5 391.79,-70.85 354.21,-42.32"/>
<polygon fill="grey" stroke="grey" stroke-width="2" points="356.22,-39.45 346.14,-36.19 351.98,-45.02 356.22,-39.45"/>
</g>
</g>
</svg>
